<svg xmlns="http://www.w3.org/2000/svg" viewBox="0 0 1024 512">
  <defs>
    <linearGradient id="g7a" x1="64" y1="72" x2="256" y2="440" gradientUnits="userSpaceOnUse">
      <stop offset="0" stop-color="#67E8F9"/><stop offset="1" stop-color="#0066FF"/>
    </linearGradient>
    <linearGradient id="g7b" x1="256" y1="72" x2="448" y2="440" gradientUnits="userSpaceOnUse">
      <stop offset="0" stop-color="#0066FF"/><stop offset="1" stop-color="#4C1D95"/>
    </linearGradient>
  </defs>
  <g id="icon" transform="translate(64 106) scale(0.5859)">
    <path d="M256 64 L256 300 L180 444 L60 444 Z" fill="url(#g7a)"/>
    <path d="M256 64 L452 444 L332 444 L256 300 Z" fill="url(#g7b)"/>
  </g>
  <g id="wordmark">
    <path d="M408 301.7 461.3 210.3H476.5L529.8 301.7H516.4L505 280.7H432.7L421.3 301.7ZM438.4 271.2H499.3L468.9 217.9ZM552.5 301.7V210.3H569.5L624.8 284.8L679.2 210.3H696.2V301.7H684.8V220.7L630.2 295.7H619.9L563.9 220.7V301.7ZM823.8 275.3Q823.8 270 822.9 266.9Q822.1 263.9 819.2 262.5Q816.3 261 810.1 260.5Q804 260.1 793.4 259.9L760.3 259.4Q748.1 259.3 740.6 258Q733.2 256.7 729.4 253.8Q725.6 251 724.3 246.2Q723 241.5 723 234.4Q723 226.6 724.8 221.5Q726.6 216.5 731.2 213.6Q735.8 210.8 744.2 209.6Q752.7 208.4 766 208.4H791.5Q803.6 208.4 811.7 209.2Q819.8 210 824.5 212.8Q829.3 215.6 831.3 221.5Q833.4 227.3 833.4 237.6H822Q822 229.7 820.5 225.6Q818.9 221.5 815.5 220Q812 218.5 806.1 218.4Q800.2 218.3 791.5 218.3H766.6Q756 218.3 749.6 218.7Q743.2 219.1 739.9 220.6Q736.7 222.1 735.6 225.4Q734.5 228.6 734.5 234.4Q734.5 239.2 735.2 242.1Q736 245 738.7 246.5Q741.4 248 747.1 248.6Q752.7 249.2 762.5 249.3L797.9 249.8Q810.4 249.9 817.8 251.2Q825.3 252.5 829 255.3Q832.7 258.2 834 263Q835.2 267.9 835.2 275.3Q835.2 283.3 833.7 288.7Q832.1 294.2 827.8 297.4Q823.5 300.7 815.3 302.1Q807.1 303.6 793.7 303.6H765.9Q753.7 303.6 745.4 302.5Q737.1 301.4 732.2 298.2Q727.3 294.9 725.2 288.5Q723 282.1 723 271.4H734.5Q734.5 279.8 735.8 284.4Q737.2 288.9 740.6 290.9Q744 292.9 750.2 293.3Q756.3 293.7 765.9 293.7H793.1Q803.7 293.7 809.9 293Q816.1 292.3 819.1 290.4Q822 288.5 822.9 284.8Q823.8 281.2 823.8 275.3ZM861.5 301.7V210.3H872.9V250.3H956.6V210.3H968V301.7H956.6V259.8H872.9V301.7Z" fill="#FFFFFF"/>
  </g>
</svg>
